# xmcd
# 
# Track frame offsets:
#     150
#     26847
#     54507
#     85425
#     105622
#     125347
#     146602
#     171787
# 
# Disc length: 2570
# 
# Revision: 1
# Processed by: cddbd v1.5.2PL0 Copyright (c) Steve Scherf et al.
# Submitted via: fre:ac v1.1beta2
# 
DISCID=6a0a0808
DTITLE=Phil Upchurch - All I Want
DYEAR=1991
DGENRE=Fusion
TTITLE0=Poison
TTITLE1=When We Need It Bad
TTITLE2=12/25
TTITLE3=516
TTITLE4=Grace
TTITLE5=What Will I Do
TTITLE6=All I Want from You
TTITLE7=U God It Down
EXTD=
EXTT0=
EXTT1=
EXTT2=
EXTT3=
EXTT4=
EXTT5=
EXTT6=
EXTT7=
PLAYORDER=
